<?xml version="1.0" encoding="utf-8"?>
<!-- Svg Vector Icons : http://www.onlinewebfonts.com/icon -->
<!DOCTYPE svg PUBLIC "-//W3C//DTD SVG 1.1//EN" "http://www.w3.org/Graphics/SVG/1.1/DTD/svg11.dtd">
<svg version="1.1" xmlns="http://www.w3.org/2000/svg" xmlns:xlink="http://www.w3.org/1999/xlink" x="0px" y="0px" viewBox="0 0 256 256" enable-background="new 0 0 256 256" xml:space="preserve">
<metadata> Svg Vector Icons : http://www.onlinewebfonts.com/icon </metadata>
<g><g><g><path fill="#000000" d="M105.5,10.4c-6.4,1.6-10.8,7-10.8,13.5c0,3.9,1.2,6.5,4.4,9.4c3,2.7,5,3.4,9,3.1l3.2-0.2l1.4,2c0.8,1.1,2.5,2.6,3.7,3.4c2.1,1.3,2.3,1.5,2,3.1s-0.2,1.6,0.5,0.8c0.4-0.5,0.8-1.3,0.8-1.6c0-0.5,0.4-0.5,1.3-0.3c0.7,0.2,1.3,0.3,1.3,0.4c0,0-0.7,2.2-1.7,4.7c-1.3,3.5-2.3,5-3.6,6.2l-1.7,1.5l0.3,5.4c0.3,4.5,0.2,5.8-0.5,7.4c-1.1,2.6-1,6.4,0.1,8.6l0.9,1.8L111.9,91c-2.4,6.3-4.2,11.7-4.1,12c0,0.2-0.5,0.9-1.3,1.3c-1,0.6-1.3,1.1-1.2,1.7c0.1,0.4,4.5,17.7,9.7,38.3c11.3,45,10.3,41.1,10.7,41.1c0.2,0,0.3-13.7,0.2-30.5c0-18.8,0-30.5,0.3-30.5c0.2,0,0.8,0.1,1.2,0.3c0.7,0.3,0.8,6.1,0.8,60.8c0,58.6,0,60.5,0.9,60.5c1,0,3.4-2.1,3.4-3c0-0.3,0.8-11.1,1.6-23.9l1.7-23.3l7.9-43.6c4.4-23.9,8-44.2,8-44.9c0-0.8-1.5-3.7-4.3-8c-2.4-3.7-4.5-6.9-4.6-7.3c-0.1-0.4,1.1-3,2.7-5.9l3-5.1l4.5,31.2c2.4,17.2,4.4,31.4,4.5,31.6c0,0.7,3.4,0.4,3.7-0.3c0.2-0.7-5.3-81.4-5.8-84.7c-0.2-1.1-0.8-1.8-2.2-2.6c-1.1-0.7-1.9-1.3-1.9-1.5c0-0.1,1.9-2,4.1-4.1c2.5-2.3,4.1-4.1,3.9-4.5c-0.1-0.3-4.8-2.4-10.3-4.5c-14.8-5.6-13.2-4.7-12.4-6.8c0.4-1.3,0.9-1.8,1.6-1.8c1.5,0,1.7-0.6,0.3-1c-1.2-0.3-1.2-0.5-1.2-2.8c0-1.9-0.4-3.3-1.5-5.5c-3.4-6.8-11.4-9.5-18.4-6.2c-2.3,1.2-2.3,1.2-4.1,0.3c-3.1-1.6-6.8-1.1-9.4,1.4c-5,4.7-2.7,11.2,3.9,11.2c1.9,0,1.9,0,2.1,2c0.1,1.2,0.2,2.1,0.1,2.2c-0.1,0.1-0.9,0.3-1.9,0.4c-2.5,0.4-5.7-0.7-8-2.6c-6.4-5.5-4.6-15.2,3.7-19.9c1.4-0.8,2.7-1.6,2.8-1.9c0.1-0.2,0.2-0.4,0.1-0.4C107,10.1,106.3,10.2,105.5,10.4z M112.6,19.6c1.1,0.6,0.6,2.1-0.5,1.6c-2.8-1.2-4.8-1.2-6.2-0.1c-1,0.7-0.8-0.4,0.2-1.2C107.6,18.6,110.4,18.5,112.6,19.6z M141.9,42.9c3.4,2.7,6.2,5.2,6.2,5.4c-0.1,0.6-18.4,18.1-18.6,17.8c-0.1-0.1,0.4-1.9,1.3-3.9c1.6-4.1,1.6-4.1,1-4.1c-0.2,0-1.1,1.5-1.8,3.4c-0.7,1.9-1.4,3.3-1.5,3.2c-0.1-0.1-1.3-3.2-2.7-6.9l-2.5-6.6l1.7-1.8c1.8-1.8,2.8-2.3,2.4-1.1c-0.2,0.4-0.1,0.8,0.1,1c0.5,0.3,0.8-0.6,1.2-3.9c0.3-2.2,0.5-2.5,2.1-3.5c1-0.5,2.4-1.6,3.2-2.5c0.8-0.8,1.5-1.5,1.7-1.5C135.7,37.8,138.6,40.1,141.9,42.9z M157.4,97.7c1.5,21.4,2.9,40.4,3,42.2c0.3,3.1,0.2,3.3-0.7,3.3c-0.7,0-1.1-0.4-1.3-1.1c-0.1-0.6-2.2-15-4.6-32.1c-2.4-17.1-4.5-31.4-4.8-31.9c-0.3-0.4-0.3-0.8-0.1-0.8c0.6,0,2.4-3.3,2.7-5.1c0.7-3.4-2-8.2-5.5-9.7l-1.7-0.7l4.8-1.8c2.6-1,5-1.7,5.1-1.5C154.5,58.6,155.9,76.3,157.4,97.7z M131.5,85.9c1,5.7,1.8,10.3,1.8,10.3c1.6,0.8,12.8,7.7,12.8,7.9c0,0.2-2.6,2.9-5.8,6l-5.8,5.6l-2-0.3c-5.2-0.8-9.9-3.6-12.4-7.2c-1.5-2.2-2.8-5.4-2.8-6.9c0-0.5,2.3-2.3,6-4.8l6-3.9l0-9c0-5,0.1-8.8,0.2-8.6C129.7,75.3,130.5,80.2,131.5,85.9z M121.7,82.6c0.4,0,0.8,0.2,0.8,0.4c0,0.2-1.8,4.2-4.1,8.8l-4,8.5l-3,1.5c-1.8,0.9-2.9,1.2-2.7,0.9c0.1-0.3,2-5.5,4.2-11.5l4-10.9l2,1.2C120,82,121.3,82.6,121.7,82.6z M133.1,222c-1.4,20.7-1.5,21.4-2.5,22.2l-1.1,0.8l-0.1-18.1l-0.1-18l2.5-4.8c1.4-2.6,2.6-4.5,2.7-4.1C134.6,200.4,134,210.3,133.1,222z"/><path fill="#000000" d="M128.3,107.6c0,0.6,0.3,1,1,1c0.6,0,1-0.3,1-1s-0.3-1-1-1C128.7,106.6,128.3,106.9,128.3,107.6z"/></g></g></g>
</svg>